<?xml version="1.0" standalone="no"?>
<!DOCTYPE svg PUBLIC "-//W3C//DTD SVG 20010904//EN"
 "http://www.w3.org/TR/2001/REC-SVG-20010904/DTD/svg10.dtd">
<svg version="1.0" xmlns="http://www.w3.org/2000/svg"
 width="192.000000pt" height="192.000000pt" viewBox="0 0 192.000000 192.000000"
 preserveAspectRatio="xMidYMid meet">

<g transform="translate(0.000000,192.000000) scale(0.100000,-0.100000)"
fill="#2db6b5" stroke="none">
<path d="M910 1847 c-3 -3 -32 -11 -65 -16 -185 -33 -218 -42 -308 -85 -87
-42 -103 -54 -189 -146 -112 -121 -180 -227 -214 -335 -25 -82 -58 -307 -48
-337 2 -9 9 -54 13 -100 9 -85 27 -195 42 -259 5 -20 21 -49 35 -64 15 -16 39
-56 54 -89 15 -34 35 -68 46 -76 18 -15 18 -14 1 13 -29 45 -8 31 62 -40 36
-37 59 -63 51 -59 -13 8 -13 7 0 -7 8 -9 58 -37 110 -63 177 -87 318 -125 453
-123 54 1 72 4 52 8 -25 6 -17 9 49 19 108 17 169 36 256 80 152 76 308 208
390 329 112 166 137 249 135 453 -2 130 -5 155 -32 241 -36 116 -90 219 -158
302 -27 34 -63 82 -79 105 -63 92 -184 174 -324 220 -59 19 -106 26 -202 29
-69 3 -127 3 -130 0z m170 -62 c133 -21 214 -50 296 -104 98 -64 231 -205 289
-306 16 -27 33 -51 37 -53 4 -2 8 -11 8 -21 0 -9 5 -22 11 -28 11 -11 27 -66
35 -122 3 -19 9 -42 14 -52 6 -10 10 -80 10 -156 0 -127 -2 -145 -30 -229 -17
-50 -49 -118 -70 -150 -22 -33 -51 -75 -64 -94 -31 -46 -146 -160 -162 -160
-3 0 -31 -19 -62 -43 -70 -53 -166 -100 -252 -123 -81 -22 -278 -27 -375 -9
-98 17 -224 75 -323 147 -142 104 -216 213 -272 398 -42 137 -53 330 -25 453
39 178 119 321 240 435 82 76 123 103 210 135 22 8 70 27 106 42 111 45 257
60 379 40z m-886 -1231 c3 -8 2 -12 -4 -9 -6 3 -10 10 -10 16 0 14 7 11 14 -7z"/>
<path d="M866 1694 c-34 -34 -11 -84 39 -84 18 0 37 5 40 10 4 6 -6 9 -25 8
-22 -2 -36 3 -44 15 -15 23 4 52 33 51 11 0 21 3 21 8 0 14 -48 9 -64 -8z"/>
<path d="M1050 1704 c-1 -5 -5 -28 -9 -51 -8 -43 2 -61 12 -23 3 13 10 18 21
14 15 -6 46 11 46 25 -1 23 -69 57 -70 35z m48 -31 c2 -8 -5 -13 -17 -13 -12
0 -21 6 -21 16 0 18 31 15 38 -3z"/>
<path d="M790 1684 c0 -21 24 -93 30 -89 9 6 -11 95 -22 95 -4 0 -8 -3 -8 -6z"/>
<path d="M705 1665 c-25 -11 -26 -14 -9 -14 15 -1 24 -11 33 -41 7 -22 16 -38
21 -35 5 3 2 21 -6 41 -12 28 -12 39 -3 50 14 17 3 17 -36 -1z"/>
<path d="M1147 1635 c-21 -25 -34 -45 -28 -45 5 0 13 5 16 10 9 15 23 12 46
-11 11 -11 22 -19 23 -17 5 8 -7 108 -13 108 -4 0 -24 -20 -44 -45z m37 -16
c-3 -5 -10 -7 -15 -3 -5 3 -7 10 -3 15 3 5 10 7 15 3 5 -3 7 -10 3 -15z"/>
<path d="M1261 1632 c9 -14 8 -25 -5 -50 -18 -35 -19 -42 -8 -42 5 0 17 18 27
39 11 26 22 38 31 34 26 -10 14 6 -16 22 -38 19 -43 19 -29 -3z"/>
<path d="M603 1614 c-7 -19 5 -31 36 -36 33 -4 37 -22 9 -36 -23 -10 -23 -11
-2 -11 12 -1 27 5 33 13 18 22 2 46 -30 46 -32 0 -41 25 -11 33 12 4 11 5 -6
6 -12 0 -25 -6 -29 -15z"/>
<path d="M1331 1559 c-33 -46 -34 -64 -1 -34 20 18 20 17 20 -13 0 -17 5 -34
10 -37 6 -4 10 5 10 20 0 14 7 28 15 31 21 8 19 37 -4 58 -18 16 -20 15 -50
-25z m52 5 c11 -11 -3 -24 -18 -18 -8 4 -12 10 -9 15 6 11 18 12 27 3z"/>
<path d="M517 1563 c-5 -5 19 -102 27 -111 3 -3 6 4 6 15 0 26 25 47 45 39 8
-3 15 -1 15 3 0 11 -87 61 -93 54z m43 -44 c0 -5 -4 -9 -10 -9 -5 0 -10 7 -10
16 0 8 5 12 10 9 6 -3 10 -10 10 -16z"/>
<path d="M1415 1490 c-41 -45 18 -110 70 -76 30 20 32 49 5 76 -25 25 -52 25
-75 0z m70 -35 c0 -27 -3 -30 -30 -30 -21 0 -31 5 -33 18 -6 33 6 49 35 45 24
-3 28 -8 28 -33z"/>
<path d="M974 1454 c-8 -19 -14 -52 -14 -72 0 -20 -4 -62 -9 -92 -6 -30 -13
-93 -17 -140 -4 -66 -10 -89 -25 -103 -17 -16 -20 -16 -25 -2 -4 8 -2 21 4 28
10 13 19 47 27 112 3 22 8 65 12 95 17 123 2 180 -48 180 -23 0 -29 -5 -34
-32 -4 -18 -11 -37 -15 -43 -8 -10 -19 -108 -25 -234 -2 -40 -7 -76 -10 -79
-3 -3 -15 18 -27 47 -26 60 -56 75 -89 45 -16 -14 -19 -26 -14 -49 15 -71 16
-115 3 -190 -9 -54 -11 -96 -5 -130 4 -27 9 -62 9 -77 1 -16 5 -28 10 -28 4 0
8 -5 8 -11 0 -12 29 -78 42 -94 41 -53 62 -73 95 -90 21 -11 41 -25 46 -32 10
-16 72 -33 118 -33 51 0 116 60 161 147 29 55 37 83 42 148 3 44 15 114 27
155 11 41 27 111 35 155 15 79 15 80 -6 97 -37 30 -60 19 -87 -41 -10 -22 -11
-11 -7 62 2 49 9 109 14 134 9 38 8 50 -8 77 -19 33 -52 45 -69 24 -14 -17
-26 -94 -27 -183 -1 -38 -5 -76 -10 -83 -4 -7 -10 -36 -12 -65 -3 -29 -7 -63
-10 -77 -5 -21 -7 -22 -15 -8 -5 9 -5 37 1 69 12 74 22 153 25 224 2 33 7 88
11 121 6 55 4 64 -15 83 -30 30 -50 26 -67 -15z m-124 -84 c0 -5 -5 -10 -11
-10 -5 0 -7 5 -4 10 3 6 8 10 11 10 2 0 4 -4 4 -10z m-5 -420 c13 0 30 -6 37
-13 7 -8 23 -19 36 -26 24 -13 55 -65 45 -75 -4 -3 -2 -6 3 -6 6 0 16 -16 23
-35 12 -35 45 -53 75 -42 19 8 32 75 17 90 -16 16 -13 27 8 27 21 0 37 16 44
45 2 11 5 2 6 -20 1 -43 -43 -235 -56 -244 -78 -57 -133 -74 -178 -56 -31 13
-78 54 -103 92 -34 49 -46 162 -29 258 l11 57 19 -26 c11 -15 28 -26 42 -26z"/>
<path d="M445 1430 l40 -40 17 22 c19 26 16 37 -7 18 -13 -11 -20 -9 -43 13
-45 43 -50 31 -7 -13z"/>
<path d="M363 1408 c-24 -31 -22 -38 14 -62 43 -30 63 -34 40 -8 -11 12 -13
22 -6 34 20 35 -23 67 -48 36z m35 -25 c-4 -22 -22 -20 -26 1 -2 10 3 16 13
16 10 0 15 -7 13 -17z"/>
<path d="M1508 1383 c-36 -24 -37 -26 -21 -49 19 -30 38 -32 22 -2 -10 18 -8
24 12 39 13 10 27 19 32 19 4 0 7 5 7 10 0 15 -11 11 -52 -17z"/>
<path d="M297 1263 c-26 -67 -38 -116 -46 -203 -16 -152 24 -460 59 -460 4 0
24 -34 45 -75 30 -61 48 -84 95 -120 32 -25 80 -55 107 -67 26 -12 51 -24 56
-26 4 -2 7 1 7 6 0 5 -24 25 -54 45 -94 62 -180 151 -219 225 -61 115 -82 214
-82 382 0 134 2 151 28 220 39 103 41 110 29 110 -5 0 -17 -17 -25 -37z"/>
<path d="M1570 1258 c0 -7 6 -22 14 -33 7 -11 16 -31 19 -45 3 -14 8 -36 11
-50 37 -157 36 -271 -4 -390 -25 -79 -72 -175 -90 -190 -4 -3 -11 -12 -16 -21
-16 -30 -96 -119 -106 -119 -5 0 -15 -6 -22 -13 -8 -6 -24 -19 -36 -27 -33
-21 -63 -51 -57 -56 3 -3 36 18 73 47 38 28 75 53 82 56 27 11 124 142 161
218 49 98 70 197 68 321 0 80 -6 111 -36 201 -20 59 -42 108 -49 111 -6 2 -12
-2 -12 -10z"/>
<path d="M696 305 c-3 -9 -6 -22 -5 -28 0 -7 5 -1 10 12 5 13 8 26 5 28 -2 2
-6 -3 -10 -12z"/>
<path d="M1181 312 c-1 -20 18 -52 32 -52 8 0 8 3 2 8 -6 4 -16 18 -22 32 -6
14 -12 19 -12 12z"/>
<path d="M774 298 c-4 -6 0 -16 8 -22 8 -6 17 -18 21 -26 4 -12 6 -11 6 3 1
10 -6 20 -15 24 -8 3 -13 12 -10 19 7 17 0 18 -10 2z"/>
<path d="M1126 302 c-3 -5 1 -9 9 -9 8 0 15 4 15 9 0 4 -4 8 -9 8 -6 0 -12 -4
-15 -8z"/>
<path d="M1227 289 c4 -13 8 -18 11 -10 2 7 -1 18 -6 23 -8 8 -9 4 -5 -13z"/>
<path d="M1078 290 c18 -20 15 -58 -5 -64 -14 -4 -14 -4 2 -3 27 3 32 49 8 67
-15 12 -16 12 -5 0z"/>
<path d="M860 265 c0 -14 2 -25 4 -25 2 0 6 11 8 25 3 14 1 25 -3 25 -5 0 -9
-11 -9 -25z"/>
<path d="M986 282 c-2 -4 4 -8 14 -8 10 0 16 4 14 8 -3 4 -9 8 -14 8 -5 0 -11
-4 -14 -8z"/>
<path d="M1052 265 c0 -16 2 -22 5 -12 2 9 2 23 0 30 -3 6 -5 -1 -5 -18z"/>
<path d="M988 213 c6 -2 18 -2 25 0 6 3 1 5 -13 5 -14 0 -19 -2 -12 -5z"/>
</g>
</svg>
