<?xml version="1.0" encoding="UTF-8" standalone="no"?>
<svg
   xmlns:dc="http://purl.org/dc/elements/1.1/"
   xmlns:cc="http://creativecommons.org/ns#"
   xmlns:rdf="http://www.w3.org/1999/02/22-rdf-syntax-ns#"
   xmlns:svg="http://www.w3.org/2000/svg"
   xmlns="http://www.w3.org/2000/svg"
   viewBox="0 0 409.33334 141.33333"
   height="141.33333"
   width="409.33334"
   xml:space="preserve"
   id="svg2"
   version="1.1"><metadata
     id="metadata8"><rdf:RDF><cc:Work
         rdf:about=""><dc:format>image/svg+xml</dc:format><dc:type
           rdf:resource="http://purl.org/dc/dcmitype/StillImage" /></cc:Work></rdf:RDF></metadata><defs
     id="defs6"><clipPath
       id="clipPath20"
       clipPathUnits="userSpaceOnUse"><path
         style="clip-rule:evenodd"
         id="path18"
         d="m 299.5632,35.6989 c 0.595,0 1.162,0.09105 1.6991,0.27315 0.5378,0.1821 1.0088,0.44574 1.4125,0.79092 0.403,0.34518 0.7242,0.76239 0.9645,1.25094 0.2396,0.48855 0.3601,1.04913 0.3601,1.68173 0,1.26521 -0.3648,2.26201 -1.0945,2.99042 -0.7304,0.72841 -1.8434,1.0933 -3.3417,1.0933 H 292.247 V 35.6989 h 7.3162 z m 0.1444,9.74724 c 0.8447,0 1.6459,-0.10532 2.4049,-0.31596 0.7583,-0.21132 1.4213,-0.53204 1.9877,-0.96283 0.5663,-0.43148 1.0176,-0.98798 1.3539,-1.66814 0.3356,-0.68017 0.5037,-1.48061 0.5037,-2.40063 0,-1.30394 -0.3362,-2.43461 -1.0081,-3.39336 -0.6719,-0.95876 -1.6705,-1.57166 -2.9958,-1.84005 v -0.05776 c 0.6725,-0.09581 1.2294,-0.27315 1.6711,-0.53204 0.4418,-0.2582 0.8012,-0.58911 1.0803,-0.99137 0.2778,-0.40294 0.4799,-0.86771 0.6045,-1.39499 0.1246,-0.52728 0.2063,-1.09737 0.2451,-1.71027 0.019,-0.34518 0.0381,-0.76714 0.0578,-1.26588 0.0184,-0.49874 0.0572,-1.00157 0.1151,-1.50914 0.0571,-0.50826 0.1483,-0.98798 0.2736,-1.4378 0.1246,-0.4505 0.2927,-0.80043 0.5037,-1.0498 h -2.1605 c -0.1151,0.19161 -0.2063,0.42671 -0.2737,0.70462 -0.0667,0.27791 -0.115,0.56534 -0.1436,0.86295 -0.0286,0.29694 -0.0531,0.58912 -0.0722,0.87654 -0.019,0.2881 -0.0388,0.5368 -0.0578,0.74812 -0.0382,0.72773 -0.1008,1.45206 -0.1866,2.17028 -0.0871,0.71958 -0.2695,1.36101 -0.5472,1.92702 -0.2791,0.56466 -0.6821,1.02059 -1.2103,1.36577 -0.5283,0.34518 -1.2532,0.49807 -2.1749,0.46002 h -7.4313 v -9.11532 h -1.9591 v 20.53002 h 9.4197 z m -15.9007,0 V 43.77936 H 271.565 v -7.41932 h 11.4645 V 34.69258 H 271.565 v -8.10832 h 12.3862 v -1.66814 h -14.3453 v 20.53002 h 14.201 z M 260.82,24.91612 l -0.2587,3.73785 h -0.0578 c -0.3458,-0.72841 -0.7733,-1.35625 -1.2818,-1.88285 -0.5092,-0.52729 -1.0708,-0.95876 -1.6848,-1.29443 -0.6153,-0.33566 -1.2729,-0.57892 -1.9734,-0.73248 -0.7011,-0.15357 -1.426,-0.23035 -2.1748,-0.23035 -1.6133,0 -3.0299,0.29286 -4.249,0.87722 -1.2198,0.58436 -2.2321,1.36577 -3.0387,2.34287 -0.8066,0.97778 -1.4118,2.10913 -1.8155,3.39336 -0.4029,1.28423 -0.6044,2.63573 -0.6044,4.05382 0,1.41877 0.2015,2.77027 0.6044,4.0545 0.4037,1.28423 1.0089,2.42033 1.8155,3.40763 0.8066,0.98661 1.8189,1.77278 3.0387,2.35782 1.2191,0.58436 2.6357,0.87654 4.249,0.87654 1.0748,0 2.0925,-0.14338 3.053,-0.43148 0.9604,-0.28742 1.8147,-0.71822 2.5642,-1.29306 0.7488,-0.57553 1.3825,-1.28491 1.9012,-2.12816 0.5187,-0.84392 0.8734,-1.83121 1.0653,-2.96188 h -1.9591 c -0.0571,0.59455 -0.2545,1.19318 -0.5901,1.79724 -0.3356,0.60407 -0.7876,1.15513 -1.354,1.65319 -0.5663,0.49875 -1.2429,0.90576 -2.0305,1.2224 -0.7876,0.31664 -1.6705,0.47428 -2.65,0.47428 -1.3642,0 -2.535,-0.25888 -3.5145,-0.77665 -0.9789,-0.51709 -1.7814,-1.20269 -2.405,-2.05545 -0.6242,-0.85343 -1.085,-1.81627 -1.3825,-2.88986 -0.2981,-1.07359 -0.4472,-2.17572 -0.4472,-3.30706 0,-1.11164 0.1491,-2.20901 0.4472,-3.29212 0.2975,-1.0831 0.7583,-2.05137 1.3825,-2.90413 0.6236,-0.85275 1.4261,-1.53835 2.405,-2.05612 0.9795,-0.51709 2.1503,-0.77598 3.5145,-0.77598 1.1327,0 2.1463,0.18686 3.0387,0.56058 0.8931,0.37372 1.6466,0.89624 2.2613,1.5669 0.6147,0.67133 1.0755,1.46701 1.3825,2.38703 0.307,0.92003 0.4513,1.92635 0.4323,3.01897 h -6.9998 v 1.66746 h 8.7281 V 24.91612 H 260.82 Z m -24.9453,0 -0.2593,3.73785 h -0.0579 c -0.3451,-0.72841 -0.7726,-1.35625 -1.2818,-1.88285 -0.5085,-0.52729 -1.0707,-0.95876 -1.6847,-1.29443 -0.6147,-0.33566 -1.273,-0.57892 -1.9734,-0.73248 -0.7011,-0.15357 -1.4254,-0.23035 -2.1749,-0.23035 -1.6133,0 -3.0291,0.29286 -4.249,0.87722 -1.2198,0.58436 -2.232,1.36577 -3.0387,2.34287 -0.8066,0.97778 -1.4111,2.10913 -1.8147,3.39336 -0.403,1.28423 -0.6052,2.63573 -0.6052,4.05382 0,1.41877 0.2022,2.77027 0.6052,4.0545 0.4036,1.28423 1.0081,2.42033 1.8147,3.40763 0.8067,0.98661 1.8189,1.77278 3.0387,2.35782 1.2199,0.58436 2.6357,0.87654 4.249,0.87654 1.0755,0 2.0932,-0.14338 3.0537,-0.43148 0.9598,-0.28742 1.8148,-0.71822 2.5635,-1.29306 0.7488,-0.57553 1.3826,-1.28491 1.9013,-2.12816 0.5187,-0.84392 0.8733,-1.83121 1.0659,-2.96188 h -1.959 c -0.0579,0.59455 -0.2546,1.19318 -0.5909,1.79724 -0.3356,0.60407 -0.7869,1.15513 -1.3539,1.65319 -0.5664,0.49875 -1.243,0.90576 -2.0306,1.2224 -0.7876,0.31664 -1.6704,0.47428 -2.65,0.47428 -1.3634,0 -2.5349,-0.25888 -3.5138,-0.77665 -0.9795,-0.51709 -1.7821,-1.20269 -2.4056,-2.05545 -0.6242,-0.85343 -1.0851,-1.81627 -1.3826,-2.88986 -0.2981,-1.07359 -0.4465,-2.17572 -0.4465,-3.30706 0,-1.11164 0.1484,-2.20901 0.4465,-3.29212 0.2975,-1.0831 0.7584,-2.05137 1.3826,-2.90413 0.6235,-0.85275 1.4261,-1.53835 2.4056,-2.05612 0.9789,-0.51709 2.1504,-0.77598 3.5138,-0.77598 1.1327,0 2.1463,0.18686 3.0394,0.56058 0.8931,0.37372 1.6459,0.89624 2.2613,1.5669 0.614,0.67133 1.0748,1.46701 1.3818,2.38703 0.3077,0.92003 0.4514,1.92635 0.4323,3.01897 h -6.9997 v 1.66746 h 8.728 v -10.4376 h -1.4111 z m -39.7943,6.97289 c 0.2968,-1.0831 0.7583,-2.05137 1.3825,-2.90413 0.6236,-0.85275 1.4261,-1.53835 2.405,-2.05612 0.9795,-0.51709 2.1504,-0.77598 3.5145,-0.77598 1.3628,0 2.5302,0.25889 3.4995,0.77598 0.97,0.51777 1.7665,1.20337 2.3914,2.05612 0.6235,0.85276 1.0843,1.82103 1.3825,2.90413 0.2974,1.08311 0.4465,2.18048 0.4465,3.29212 0,1.13134 -0.1491,2.23347 -0.4465,3.30706 -0.2982,1.07359 -0.759,2.03643 -1.3825,2.88986 -0.6249,0.85276 -1.4214,1.53836 -2.3914,2.05545 -0.9693,0.51777 -2.1367,0.77665 -3.4995,0.77665 -1.3641,0 -2.535,-0.25888 -3.5145,-0.77665 -0.9789,-0.51709 -1.7814,-1.20269 -2.405,-2.05545 -0.6242,-0.85343 -1.0857,-1.81627 -1.3825,-2.88986 -0.2981,-1.07359 -0.4472,-2.17572 -0.4472,-3.30706 0,-1.11164 0.1491,-2.20901 0.4472,-3.29212 z m -1.8005,7.34662 c 0.403,1.28423 1.0082,2.42033 1.8148,3.40763 0.8067,0.98661 1.8189,1.77278 3.0387,2.35782 1.2192,0.58436 2.6357,0.87654 4.249,0.87654 1.6133,0 3.0244,-0.29218 4.234,-0.87654 1.2096,-0.58504 2.2184,-1.37121 3.0251,-2.35782 0.8066,-0.9873 1.4111,-2.1234 1.8148,-3.40763 0.4029,-1.28423 0.6044,-2.63573 0.6044,-4.0545 0,-1.41809 -0.2015,-2.76959 -0.6044,-4.05382 -0.4037,-1.28423 -1.0082,-2.41558 -1.8148,-3.39336 -0.8067,-0.9771 -1.8155,-1.75851 -3.0251,-2.34287 -1.2096,-0.58436 -2.6207,-0.87722 -4.234,-0.87722 -1.6133,0 -3.0298,0.29286 -4.249,0.87722 -1.2198,0.58436 -2.232,1.36577 -3.0387,2.34287 -0.8066,0.97778 -1.4118,2.10913 -1.8148,3.39336 -0.4036,1.28423 -0.6051,2.63573 -0.6051,4.05382 0,1.41877 0.2015,2.77027 0.6051,4.0545 z m -16.6202,6.21051 V 26.58426 h 11.5217 v -1.66814 h -13.4807 v 20.53002 h 1.959 z M 304.2009,73.04963 V 71.38217 H 291.959 v -7.41864 h 11.4646 V 62.29538 H 291.959 v -8.10832 h 12.3862 V 52.5196 H 290 v 20.53003 h 14.2009 z m -32.751,0 V 54.18706 h 11.5217 V 52.5196 h -13.4814 v 20.53003 h 1.9597 z M 250.8537,54.18706 c 1.4785,0 2.7508,0.15832 3.8168,0.47429 1.0653,0.31664 1.9441,0.81946 2.6357,1.50982 0.6909,0.68968 1.2001,1.58116 1.5261,2.67378 0.3268,1.09261 0.4901,2.40538 0.4901,3.93967 0,1.53292 -0.1633,2.84637 -0.4901,3.93898 -0.326,1.0933 -0.8352,1.98411 -1.5261,2.67446 -0.6916,0.68968 -1.5704,1.19318 -2.6357,1.50915 -1.066,0.31664 -2.3383,0.47496 -3.8168,0.47496 h -4.1768 V 54.18706 h 4.1768 z m 0.9796,18.86257 c 3.1299,-0.07678 5.4872,-0.954 7.0718,-2.63098 1.5841,-1.67765 2.3764,-4.22233 2.3764,-7.63403 0,-3.41239 -0.7923,-5.95707 -2.3764,-7.63404 -1.5846,-1.67766 -3.9419,-2.55487 -7.0718,-2.63098 h -7.1155 v 20.53003 h 7.1155 z m -25.752,-18.86257 c 1.4785,0 2.7508,0.15832 3.8161,0.47429 1.066,0.31664 1.9448,0.81946 2.6357,1.50982 0.6916,0.68968 1.2001,1.58116 1.5268,2.67378 0.3268,1.09261 0.4901,2.40538 0.4901,3.93967 0,1.53292 -0.1633,2.84637 -0.4901,3.93898 -0.3267,1.0933 -0.8352,1.98411 -1.5268,2.67446 -0.6909,0.68968 -1.5697,1.19318 -2.6357,1.50915 -1.0653,0.31664 -2.3376,0.47496 -3.8161,0.47496 h -4.1768 V 54.18706 h 4.1768 z m 0.9789,18.86257 c 3.1306,-0.07678 5.4879,-0.954 7.0719,-2.63098 1.5847,-1.67765 2.3763,-4.22233 2.3763,-7.63403 0,-3.41239 -0.7916,-5.95707 -2.3763,-7.63404 -1.584,-1.67766 -3.9413,-2.55487 -7.0719,-2.63098 h -7.1148 v 20.53003 h 7.1148 z m -19.2988,-12.47946 -3.9753,10.52389 -4.119,-10.52389 h 8.0943 z m -2.7943,12.47946 8.065,-20.53003 h -2.102 l -2.5064,6.38311 h -9.3618 l -2.4771,-6.38311 h -2.0741 l 8.2672,20.53003 h 2.1892 z M 184.3994,62.98574 c 1.3635,0 2.4676,0.34518 3.3131,1.03486 0.8447,0.69036 1.2674,1.74425 1.2674,3.16302 0,1.41809 -0.4227,2.47333 -1.2674,3.16301 -0.8455,0.69036 -1.9496,1.03554 -3.3131,1.03554 h -6.7397 v -8.39643 h 6.7397 z m 0.4323,10.06389 c 0.9217,0 1.7576,-0.12978 2.5064,-0.38867 0.7488,-0.2582 1.392,-0.64211 1.9298,-1.14969 0.5377,-0.50826 0.9509,-1.12659 1.2382,-1.85432 0.2886,-0.72909 0.4322,-1.55331 0.4322,-2.47333 0,-0.92003 -0.1436,-1.74425 -0.4322,-2.47266 -0.2873,-0.72909 -0.7005,-1.34674 -1.2382,-1.85432 -0.5378,-0.50893 -1.181,-0.89149 -1.9298,-1.15037 -0.7488,-0.25889 -1.5847,-0.38799 -2.5064,-0.38799 h -7.172 V 52.5196 h -1.959 v 20.53003 h 9.131 z" /></clipPath><clipPath
       id="clipPath26"
       clipPathUnits="userSpaceOnUse"><path
         id="path24"
         d="M -34,-397 H 341 V 270 H -34 Z" /></clipPath><clipPath
       id="clipPath36"
       clipPathUnits="userSpaceOnUse"><path
         style="clip-rule:evenodd"
         id="path34"
         d="M 0.04084257,105.4177 V 0.4538974 H 137.8668 V 105.4177 H 0.04084257 Z" /></clipPath><clipPath
       id="clipPath42"
       clipPathUnits="userSpaceOnUse"><path
         id="path40"
         d="M -34,-397 H 341 V 270 H -34 Z" /></clipPath><clipPath
       id="clipPath48"
       clipPathUnits="userSpaceOnUse"><path
         id="path46"
         d="M 0,0 H 138 V 106 H 0 Z" /></clipPath><clipPath
       id="clipPath52"
       clipPathUnits="userSpaceOnUse"><path
         style="clip-rule:evenodd"
         id="path50"
         d="m 136.1453,1.214244 h 1.7215 V 96.33226 h -1.7215 z" /></clipPath><clipPath
       id="clipPath56"
       clipPathUnits="userSpaceOnUse"><path
         id="path54"
         d="M 0,0 H 138 V 106 H 0 Z" /></clipPath><clipPath
       id="clipPath60"
       clipPathUnits="userSpaceOnUse"><path
         style="clip-rule:evenodd"
         id="path58"
         d="M 59.62675,56.23368 H 37.62282 c 3.35794,9.0032 8.50274,16.82614 11.06221,20.42335 2.5016,-3.67127 7.55451,-11.61516 10.94172,-20.42335 z M 48.72315,26.25335 c -8.36933,0 -14.29354,1.02874 -14.29354,14.34057 0,0.21948 0.0095,0.43963 0.01429,0.65911 h 28.55781 c 0.0054,-0.21948 0.01566,-0.44099 0.01566,-0.65911 0,-13.31183 -5.9249,-14.34057 -14.29422,-14.34057 z M 36.32334,52.36672 H 60.98 c 0.75559,-2.4115 1.34304,-4.84814 1.68884,-7.24673 H 34.74137 c 0.31926,2.4312 0.87063,4.86309 1.58197,7.24673 z m 48.16837,29.71125 4.2803,4.27262 2.86851,-2.86268 2.7385,2.73358 -8.47552,8.46029 -2.73917,-2.73425 2.86851,-2.86268 -4.28099,-4.27398 C 75.32459,90.73668 67.30243,94.96173 58.4076,96.75965 v -3.95461 c 8.12223,-1.79181 15.42352,-5.78923 21.24154,-11.32569 l -5.07809,-5.06966 1.52138,-1.51865 5.0781,5.06897 C 88.61885,72.16426 93.27559,61.69744 93.54991,50.16382 h -7.19646 v -2.14786 h 7.20599 C 93.2858,36.48167 88.62225,26.01349 81.17393,18.21637 l -5.0815,5.07237 -1.52138,-1.51865 5.0815,-5.07237 C 71.8414,9.262769 61.35439,4.606923 49.79935,4.333769 V 11.5275 H 47.64763 V 4.333769 c -11.55505,0.273154 -22.04206,4.929 -29.8532,12.363951 l 5.08149,5.07237 -1.52206,1.51865 -5.08082,-5.07237 C 8.824718,26.01349 4.160497,36.48167 3.887532,48.01596 h 7.205988 v 2.14786 H 3.887532 c 0.272965,11.5343 4.937186,22.00247 12.385508,29.79959 l 5.08082,-5.07237 1.52206,1.51865 -5.08149,5.07237 c 7.61646,7.24945 17.77809,11.85502 28.9921,12.3327 V 80.62319 C 44.14606,77.16324 30.55637,58.48278 30.55637,40.59392 c 0,-16.80032 9.37745,-18.20754 18.16678,-18.20754 8.79,0 18.16745,1.40722 18.16745,18.20754 0,7.6619 -2.80656,16.82343 -8.34141,27.23045 -3.40491,6.40213 -6.76898,11.21766 -7.88874,12.76892 V 105.4177 H 46.78653 V 97.68376 C 20.81474,96.66521 0,75.26 0,49.09023 0,22.27155 21.8569,0.4538974 48.72315,0.4538974 c 26.86624,0 48.72382,21.8176526 48.72382,48.6363326 0,12.71932 -4.9188,24.31205 -12.95526,32.98774 z" /></clipPath><clipPath
       id="clipPath64"
       clipPathUnits="userSpaceOnUse"><path
         id="path62"
         d="M 0,0 H 138 V 106 H 0 Z" /></clipPath></defs><g
     transform="matrix(1.3333333,0,0,-1.3333333,0,141.33333)"
     id="g10"><g
       id="g12" /><g
       id="g14"><g
         clip-path="url(#clipPath20)"
         id="g16"><g
           clip-path="url(#clipPath26)"
           id="g22"><path
             id="path28"
             style="fill:#237997;fill-opacity:1;fill-rule:nonzero;stroke:none"
             d="M 170.7007,19.51386 H 311.5052 V 78.04963 H 170.7007 Z" /></g></g></g><g
       id="g30"><g
         clip-path="url(#clipPath36)"
         id="g32"><g
           clip-path="url(#clipPath42)"
           id="g38"><g
             id="g44" /><g
             id="g86"><g
               id="g84"
               clip-path="url(#clipPath48)"><g
                 id="g66" /><g
                 id="g74"><g
                   id="g72"
                   clip-path="url(#clipPath52)"><g
                     id="g70"
                     clip-path="url(#clipPath56)"><path
                       id="path68"
                       style="fill:#237997;fill-opacity:1;fill-rule:nonzero;stroke:none"
                       d="m 131.1453,-3.785756 h 11.72151 V 101.33224 H 131.1453 Z" /></g></g></g><g
                 id="g82"><g
                   id="g80"
                   clip-path="url(#clipPath60)"><g
                     id="g78"
                     clip-path="url(#clipPath64)"><path
                       id="path76"
                       style="fill:#237997;fill-opacity:1;fill-rule:nonzero;stroke:none"
                       d="M -5,-4.546103 H 102.447 V 110.4177 H -5 Z" /></g></g></g></g></g></g></g></g></g></svg>
